<mxfile host="app.diagrams.net" modified="2024-05-30T21:59:41.957Z" agent="Mozilla/5.0 (Windows NT 10.0; Win64; x64) AppleWebKit/537.36 (KHTML, like Gecko) Chrome/125.0.0.0 Safari/537.36" etag="zry6B7apd2XaiIkJjxlX" version="24.4.8" type="github">
  <diagram name="Page-1" id="efa7a0a1-bf9b-a30e-e6df-94a7791c09e9">
    <mxGraphModel dx="4941" dy="2392" grid="1" gridSize="10" guides="1" tooltips="1" connect="1" arrows="1" fold="1" page="1" pageScale="1" pageWidth="1169" pageHeight="827" background="none" math="0" shadow="0">
      <root>
        <mxCell id="0" />
        <mxCell id="1" parent="0" />
        <mxCell id="22" value="&lt;p style=&quot;margin: 0px; margin-top: 4px; text-align: center; text-decoration: underline;&quot;&gt;&lt;strong&gt;Date&lt;/strong&gt;&lt;/p&gt;&lt;hr&gt;&lt;p style=&quot;margin: 0px; margin-left: 8px;&quot;&gt;DateID (PK)&lt;/p&gt;&lt;p style=&quot;margin: 0px; margin-left: 8px;&quot;&gt;Date&lt;/p&gt;&lt;p style=&quot;margin: 0px; margin-left: 8px;&quot;&gt;Year&lt;/p&gt;&lt;p style=&quot;margin: 0px; margin-left: 8px;&quot;&gt;Month&lt;/p&gt;&lt;p style=&quot;margin: 0px; margin-left: 8px;&quot;&gt;Day&lt;/p&gt;&lt;p style=&quot;margin: 0px; margin-left: 8px;&quot;&gt;Quarter&lt;/p&gt;" style="verticalAlign=top;align=left;overflow=fill;fontSize=12;fontFamily=Helvetica;html=1;strokeColor=#003366;shadow=1;fillColor=#D4E1F5;fontColor=#003366" parent="1" vertex="1">
          <mxGeometry x="-2510" y="-866" width="170" height="130" as="geometry" />
        </mxCell>
        <mxCell id="23" value="&lt;p style=&quot;margin: 0px; margin-top: 4px; text-align: center; text-decoration: underline;&quot;&gt;&lt;b&gt;Customer&lt;/b&gt;&lt;/p&gt;&lt;hr&gt;&lt;p style=&quot;margin: 0px; margin-left: 8px;&quot;&gt;CustomerID (PK)&lt;/p&gt;&lt;p style=&quot;margin: 0px; margin-left: 8px;&quot;&gt;FirstName&lt;/p&gt;&lt;p style=&quot;margin: 0px; margin-left: 8px;&quot;&gt;LastName&lt;/p&gt;&lt;p style=&quot;margin: 0px; margin-left: 8px;&quot;&gt;Email&lt;/p&gt;&lt;p style=&quot;margin: 0px; margin-left: 8px;&quot;&gt;Phone&lt;/p&gt;&lt;p style=&quot;margin: 0px; margin-left: 8px;&quot;&gt;Address&lt;/p&gt;" style="verticalAlign=top;align=left;overflow=fill;fontSize=12;fontFamily=Helvetica;html=1;strokeColor=#003366;shadow=1;fillColor=#D4E1F5;fontColor=#003366" parent="1" vertex="1">
          <mxGeometry x="-2822.5" y="-880" width="170" height="130" as="geometry" />
        </mxCell>
        <mxCell id="68_dvBjLKG9QEOhtULUL-115" value="&lt;p style=&quot;margin: 0px; margin-top: 4px; text-align: center; text-decoration: underline;&quot;&gt;&lt;strong&gt;Employee&lt;/strong&gt;&lt;/p&gt;&lt;hr&gt;&lt;p style=&quot;margin: 0px; margin-left: 8px;&quot;&gt;EmployeeID (PK)&lt;br&gt;FistName&lt;/p&gt;&lt;p style=&quot;margin: 0px; margin-left: 8px;&quot;&gt;LastName&lt;/p&gt;&lt;p style=&quot;margin: 0px; margin-left: 8px;&quot;&gt;Position&lt;/p&gt;&lt;p style=&quot;margin: 0px; margin-left: 8px;&quot;&gt;HireDate&lt;/p&gt;" style="verticalAlign=top;align=left;overflow=fill;fontSize=12;fontFamily=Helvetica;html=1;strokeColor=#003366;shadow=1;fillColor=#D4E1F5;fontColor=#003366" vertex="1" parent="1">
          <mxGeometry x="-2822.5" y="-1069.9999999999995" width="160" height="120" as="geometry" />
        </mxCell>
        <mxCell id="68_dvBjLKG9QEOhtULUL-116" value="&lt;p style=&quot;margin: 0px; margin-top: 4px; text-align: center; text-decoration: underline;&quot;&gt;&lt;strong&gt;Book&lt;/strong&gt;&lt;/p&gt;&lt;hr&gt;&lt;p style=&quot;margin: 0px; margin-left: 8px;&quot;&gt;BookID (PK)&lt;br&gt;Title&lt;/p&gt;&lt;p style=&quot;margin: 0px; margin-left: 8px;&quot;&gt;Author&lt;/p&gt;&lt;p style=&quot;margin: 0px; margin-left: 8px;&quot;&gt;Genre&lt;/p&gt;&lt;p style=&quot;margin: 0px; margin-left: 8px;&quot;&gt;Price&lt;/p&gt;&lt;p style=&quot;margin: 0px; margin-left: 8px;&quot;&gt;StockQuantity&lt;/p&gt;" style="verticalAlign=top;align=left;overflow=fill;fontSize=12;fontFamily=Helvetica;html=1;strokeColor=#003366;shadow=1;fillColor=#D4E1F5;fontColor=#003366" vertex="1" parent="1">
          <mxGeometry x="-2250" y="-861" width="160" height="130" as="geometry" />
        </mxCell>
        <mxCell id="68_dvBjLKG9QEOhtULUL-117" value="&lt;p style=&quot;margin: 0px; margin-top: 4px; text-align: center; text-decoration: underline;&quot;&gt;&lt;strong&gt;Order&lt;/strong&gt;&lt;/p&gt;&lt;hr&gt;&lt;p style=&quot;margin: 0px; margin-left: 8px;&quot;&gt;OrderID (PK)&lt;br&gt;CustomerID (FK from Customer)&lt;/p&gt;&lt;p style=&quot;margin: 0px; margin-left: 8px;&quot;&gt;BookID (FK from Book)&lt;/p&gt;&lt;p style=&quot;margin: 0px; margin-left: 8px;&quot;&gt;&lt;span style=&quot;background-color: initial;&quot;&gt;OrderDate (FK from Date)&lt;/span&gt;&lt;br&gt;&lt;/p&gt;&lt;p style=&quot;margin: 0px; margin-left: 8px;&quot;&gt;&lt;span style=&quot;background-color: initial;&quot;&gt;Quantity&lt;/span&gt;&lt;br&gt;&lt;/p&gt;&lt;p style=&quot;margin: 0px; margin-left: 8px;&quot;&gt;&lt;span style=&quot;background-color: initial;&quot;&gt;TotalAmount&lt;/span&gt;&lt;br&gt;&lt;/p&gt;" style="verticalAlign=top;align=left;overflow=fill;fontSize=12;fontFamily=Helvetica;html=1;strokeColor=#003366;shadow=1;fillColor=#D4E1F5;fontColor=#003366" vertex="1" parent="1">
          <mxGeometry x="-2530" y="-630" width="215" height="130" as="geometry" />
        </mxCell>
        <mxCell id="68_dvBjLKG9QEOhtULUL-120" value="&lt;p style=&quot;margin: 0px; margin-top: 4px; text-align: center; text-decoration: underline;&quot;&gt;&lt;strong&gt;Sales&lt;/strong&gt;&lt;/p&gt;&lt;hr&gt;&lt;p style=&quot;margin: 0px; margin-left: 8px;&quot;&gt;SaleslID (PK)&lt;br&gt;EmployeeID (FK from Employee)&lt;/p&gt;&lt;p style=&quot;margin: 0px; margin-left: 8px;&quot;&gt;OrderID (FK From Order)&lt;/p&gt;&lt;p style=&quot;margin: 0px; margin-left: 8px;&quot;&gt;SaleDate (FK from Date)&lt;/p&gt;&lt;p style=&quot;margin: 0px; margin-left: 8px;&quot;&gt;TotalSaleAmount&lt;/p&gt;" style="verticalAlign=top;align=left;overflow=fill;fontSize=12;fontFamily=Helvetica;html=1;strokeColor=#003366;shadow=1;fillColor=#D4E1F5;fontColor=#003366" vertex="1" parent="1">
          <mxGeometry x="-2520" y="-1070" width="190" height="130" as="geometry" />
        </mxCell>
        <mxCell id="68_dvBjLKG9QEOhtULUL-121" style="edgeStyle=orthogonalEdgeStyle;rounded=0;orthogonalLoop=1;jettySize=auto;html=1;exitX=0.5;exitY=1;exitDx=0;exitDy=0;" edge="1" parent="1" source="68_dvBjLKG9QEOhtULUL-115" target="68_dvBjLKG9QEOhtULUL-115">
          <mxGeometry relative="1" as="geometry" />
        </mxCell>
        <mxCell id="68_dvBjLKG9QEOhtULUL-155" value="" style="endArrow=open;html=1;endSize=12;startArrow=diamondThin;startSize=14;startFill=0;edgeStyle=orthogonalEdgeStyle;rounded=0;entryX=1;entryY=0.5;entryDx=0;entryDy=0;exitX=0.006;exitY=0.577;exitDx=0;exitDy=0;exitPerimeter=0;" edge="1" parent="1" source="68_dvBjLKG9QEOhtULUL-117" target="23">
          <mxGeometry relative="1" as="geometry">
            <mxPoint x="-2820" y="-640" as="sourcePoint" />
            <mxPoint x="-2660" y="-640" as="targetPoint" />
          </mxGeometry>
        </mxCell>
        <mxCell id="68_dvBjLKG9QEOhtULUL-156" value="0..n" style="edgeLabel;resizable=0;html=1;align=left;verticalAlign=top;" connectable="0" vertex="1" parent="68_dvBjLKG9QEOhtULUL-155">
          <mxGeometry x="-1" relative="1" as="geometry">
            <mxPoint x="-41" y="-25" as="offset" />
          </mxGeometry>
        </mxCell>
        <mxCell id="68_dvBjLKG9QEOhtULUL-157" value="1" style="edgeLabel;resizable=0;html=1;align=right;verticalAlign=top;" connectable="0" vertex="1" parent="68_dvBjLKG9QEOhtULUL-155">
          <mxGeometry x="1" relative="1" as="geometry">
            <mxPoint x="23" y="18" as="offset" />
          </mxGeometry>
        </mxCell>
        <mxCell id="68_dvBjLKG9QEOhtULUL-169" value="" style="endArrow=open;html=1;endSize=12;startArrow=diamondThin;startSize=14;startFill=0;edgeStyle=orthogonalEdgeStyle;rounded=0;exitX=0;exitY=0.554;exitDx=0;exitDy=0;exitPerimeter=0;entryX=1.019;entryY=0.592;entryDx=0;entryDy=0;entryPerimeter=0;" edge="1" parent="1" source="68_dvBjLKG9QEOhtULUL-120" target="68_dvBjLKG9QEOhtULUL-115">
          <mxGeometry relative="1" as="geometry">
            <mxPoint x="-3160" y="-970" as="sourcePoint" />
            <mxPoint x="-3000" y="-970" as="targetPoint" />
          </mxGeometry>
        </mxCell>
        <mxCell id="68_dvBjLKG9QEOhtULUL-170" value="0..n" style="edgeLabel;resizable=0;html=1;align=left;verticalAlign=top;" connectable="0" vertex="1" parent="68_dvBjLKG9QEOhtULUL-169">
          <mxGeometry x="-1" relative="1" as="geometry">
            <mxPoint x="-30" y="-32" as="offset" />
          </mxGeometry>
        </mxCell>
        <mxCell id="68_dvBjLKG9QEOhtULUL-171" value="1" style="edgeLabel;resizable=0;html=1;align=right;verticalAlign=top;" connectable="0" vertex="1" parent="68_dvBjLKG9QEOhtULUL-169">
          <mxGeometry x="1" relative="1" as="geometry">
            <mxPoint x="27" y="-21" as="offset" />
          </mxGeometry>
        </mxCell>
        <mxCell id="68_dvBjLKG9QEOhtULUL-178" value="" style="endArrow=open;html=1;endSize=12;startArrow=diamondThin;startSize=14;startFill=0;edgeStyle=orthogonalEdgeStyle;rounded=0;exitX=1;exitY=0.587;exitDx=0;exitDy=0;exitPerimeter=0;entryX=0.5;entryY=1;entryDx=0;entryDy=0;" edge="1" parent="1" source="68_dvBjLKG9QEOhtULUL-117" target="68_dvBjLKG9QEOhtULUL-116">
          <mxGeometry relative="1" as="geometry">
            <mxPoint x="-2002" y="-622.99" as="sourcePoint" />
            <mxPoint x="-2490" y="-820" as="targetPoint" />
          </mxGeometry>
        </mxCell>
        <mxCell id="68_dvBjLKG9QEOhtULUL-179" value="0..n" style="edgeLabel;resizable=0;html=1;align=left;verticalAlign=top;" connectable="0" vertex="1" parent="68_dvBjLKG9QEOhtULUL-178">
          <mxGeometry x="-1" relative="1" as="geometry">
            <mxPoint x="12" y="-27" as="offset" />
          </mxGeometry>
        </mxCell>
        <mxCell id="68_dvBjLKG9QEOhtULUL-180" value="1" style="edgeLabel;resizable=0;html=1;align=right;verticalAlign=top;" connectable="0" vertex="1" parent="68_dvBjLKG9QEOhtULUL-178">
          <mxGeometry x="1" relative="1" as="geometry">
            <mxPoint x="20" y="10" as="offset" />
          </mxGeometry>
        </mxCell>
        <mxCell id="68_dvBjLKG9QEOhtULUL-186" value="&lt;div&gt;&lt;br&gt;&lt;/div&gt;&lt;div&gt;&lt;br&gt;&lt;/div&gt;" style="endArrow=open;html=1;endSize=12;startArrow=diamondThin;startSize=14;startFill=0;edgeStyle=orthogonalEdgeStyle;rounded=0;exitX=0.55;exitY=-0.013;exitDx=0;exitDy=0;exitPerimeter=0;entryX=0.581;entryY=1.015;entryDx=0;entryDy=0;entryPerimeter=0;" edge="1" parent="1" source="68_dvBjLKG9QEOhtULUL-117" target="22">
          <mxGeometry x="1" y="965" relative="1" as="geometry">
            <mxPoint x="-3060" y="-620" as="sourcePoint" />
            <mxPoint x="-2900" y="-620" as="targetPoint" />
            <mxPoint x="159" y="-527" as="offset" />
          </mxGeometry>
        </mxCell>
        <mxCell id="68_dvBjLKG9QEOhtULUL-187" value="0..n" style="edgeLabel;resizable=0;html=1;align=left;verticalAlign=top;" connectable="0" vertex="1" parent="68_dvBjLKG9QEOhtULUL-186">
          <mxGeometry x="-1" relative="1" as="geometry">
            <mxPoint x="12" y="-28" as="offset" />
          </mxGeometry>
        </mxCell>
        <mxCell id="68_dvBjLKG9QEOhtULUL-188" value="1" style="edgeLabel;resizable=0;html=1;align=right;verticalAlign=top;" connectable="0" vertex="1" parent="68_dvBjLKG9QEOhtULUL-186">
          <mxGeometry x="1" relative="1" as="geometry">
            <mxPoint x="22" as="offset" />
          </mxGeometry>
        </mxCell>
        <mxCell id="68_dvBjLKG9QEOhtULUL-192" value="&lt;div&gt;&lt;br&gt;&lt;/div&gt;&lt;div&gt;&lt;br&gt;&lt;/div&gt;" style="endArrow=open;html=1;endSize=12;startArrow=diamondThin;startSize=14;startFill=0;edgeStyle=orthogonalEdgeStyle;rounded=0;exitX=0.558;exitY=0.992;exitDx=0;exitDy=0;exitPerimeter=0;entryX=0.619;entryY=0.008;entryDx=0;entryDy=0;entryPerimeter=0;" edge="1" parent="1" source="68_dvBjLKG9QEOhtULUL-120" target="22">
          <mxGeometry x="-1" y="-440" relative="1" as="geometry">
            <mxPoint x="-2650" y="-800" as="sourcePoint" />
            <mxPoint x="-2490" y="-800" as="targetPoint" />
            <mxPoint x="-410" y="-280" as="offset" />
          </mxGeometry>
        </mxCell>
        <mxCell id="68_dvBjLKG9QEOhtULUL-193" value="0..n" style="edgeLabel;resizable=0;html=1;align=left;verticalAlign=top;" connectable="0" vertex="1" parent="68_dvBjLKG9QEOhtULUL-192">
          <mxGeometry x="-1" relative="1" as="geometry" />
        </mxCell>
        <mxCell id="68_dvBjLKG9QEOhtULUL-194" value="1" style="edgeLabel;resizable=0;html=1;align=right;verticalAlign=top;" connectable="0" vertex="1" parent="68_dvBjLKG9QEOhtULUL-192">
          <mxGeometry x="1" relative="1" as="geometry">
            <mxPoint x="16" y="-21" as="offset" />
          </mxGeometry>
        </mxCell>
      </root>
    </mxGraphModel>
  </diagram>
</mxfile>
